<svg width="170" height="134" viewBox="0 0 170 134" fill="none" xmlns="http://www.w3.org/2000/svg">
<path d="M24.2857 0C10.8731 0 0 10.908 0 24.3636V30.4545H170V24.3636C170 10.908 159.127 0 145.714 0H24.2857Z" fill="white"/>
<path fill-rule="evenodd" clip-rule="evenodd" d="M170 48.7273H0V109.636C0 123.092 10.8731 134 24.2857 134H145.714C159.127 134 170 123.092 170 109.636V48.7273ZM24.2857 79.1818C24.2857 75.8179 27.004 73.0909 30.3571 73.0909H78.9286C82.2817 73.0909 85 75.8179 85 79.1818C85 82.5457 82.2817 85.2727 78.9286 85.2727H30.3571C27.004 85.2727 24.2857 82.5457 24.2857 79.1818ZM30.3571 97.4545C27.004 97.4545 24.2857 100.182 24.2857 103.545C24.2857 106.909 27.004 109.636 30.3571 109.636H54.6429C57.996 109.636 60.7143 106.909 60.7143 103.545C60.7143 100.182 57.996 97.4545 54.6429 97.4545H30.3571Z" fill="white"/>
</svg>
