<svg width="150" height="150" viewBox="0 0 150 150" fill="none" xmlns="http://www.w3.org/2000/svg">
<path fill-rule="evenodd" clip-rule="evenodd" d="M126.426 129.593C140.94 115.916 150 96.5163 150 75C150 33.5786 116.421 0 75 0C33.5786 0 0 33.5786 0 75C0 96.5163 9.06041 115.916 23.5741 129.593C37.0009 142.246 55.0949 150 75 150C94.9051 150 112.999 142.246 126.426 129.593ZM29.9625 119.71C40.5355 106.522 56.7816 98.0769 75 98.0769C93.2184 98.0769 109.465 106.522 120.038 119.71C108.541 131.291 92.6077 138.462 75 138.462C57.3923 138.462 41.4594 131.291 29.9625 119.71ZM103.846 51.9231C103.846 67.8544 90.9313 80.7692 75 80.7692C59.0687 80.7692 46.1538 67.8544 46.1538 51.9231C46.1538 35.9918 59.0687 23.0769 75 23.0769C90.9313 23.0769 103.846 35.9918 103.846 51.9231Z" fill="white"/>
</svg>
