<svg width="519" height="376" viewBox="0 0 519 376" fill="none" xmlns="http://www.w3.org/2000/svg">
<g opacity="0.2" clip-path="url(#clip0_18_36)">
<path d="M490.976 16H155.277C139.8 16 127.253 28.5581 127.253 44.0493V252.368C127.253 267.859 139.8 280.417 155.277 280.417H490.976C506.453 280.417 519 267.859 519 252.368V44.0493C519 28.5581 506.453 16 490.976 16Z" fill="#77787B"/>
<path d="M519 79.8416H127.253V132.684H519V79.8416Z" fill="#4D4D4F"/>
<path d="M382.723 111.583H47.024C31.5468 111.583 19 124.141 19 139.632V347.951C19 363.442 31.5468 376 47.024 376H382.723C398.2 376 410.746 363.442 410.746 347.951V139.632C410.746 124.141 398.2 111.583 382.723 111.583Z" fill="white"/>
<path d="M140.343 161.836V198.833C140.382 199.448 140.382 200.064 140.343 200.679C139.876 203.683 138.357 206.423 136.058 208.409C133.758 210.396 130.829 211.5 127.791 211.525H59.5758C56.5273 211.497 53.5884 210.382 51.2877 208.38C48.9869 206.378 47.4751 203.62 47.024 200.602C46.9722 199.988 46.9722 199.37 47.024 198.756V161.836C46.9722 161.222 46.9722 160.604 47.024 159.99C47.4916 156.986 49.0106 154.246 51.3098 152.26C53.6089 150.273 56.5386 149.169 59.5758 149.144H127.663C130.701 149.169 133.63 150.273 135.929 152.26C138.229 154.246 139.748 156.986 140.215 159.99C140.297 160.602 140.34 161.218 140.343 161.836Z" fill="#F7E06D"/>
<path d="M108.656 169.835C108.663 167.265 108.043 164.731 106.851 162.454C105.659 160.177 103.931 158.225 101.816 156.767C99.7004 155.309 97.2621 154.389 94.7117 154.086C92.1612 153.784 89.5755 154.108 87.1784 155.031C84.7812 155.953 82.6448 157.447 80.9541 159.382C79.2633 161.317 78.0692 163.635 77.4749 166.136C76.8807 168.637 76.9043 171.245 77.5437 173.734C78.1831 176.224 79.4191 178.52 81.1446 180.424C79.0922 182.694 77.7421 185.512 77.258 188.535C76.7739 191.558 77.1766 194.656 78.4173 197.455C79.658 200.253 81.6834 202.631 84.2477 204.3C86.812 205.969 89.8051 206.858 92.8639 206.858C95.9228 206.858 98.9159 205.969 101.48 204.3C104.045 202.631 106.07 200.253 107.311 197.455C108.551 194.656 108.954 191.558 108.47 188.535C107.986 185.512 106.636 182.694 104.583 180.424C107.198 177.517 108.649 173.747 108.656 169.835Z" fill="#F2CB41"/>
<path d="M140.343 161.836V167.271H46.8959V161.836C46.8441 161.222 46.8441 160.604 46.8959 159.99H140.215C140.297 160.602 140.34 161.218 140.343 161.836Z" fill="#F2CB41"/>
<path d="M140.369 176.732H46.8959V183.937H140.369V176.732Z" fill="#F2CB41"/>
<path d="M140.343 193.475V198.833C140.382 199.448 140.382 200.064 140.343 200.679H47.024C46.9722 200.065 46.9722 199.447 47.024 198.833V193.475H140.343Z" fill="#F2CB41"/>
<path d="M329.928 349.104C344.132 349.104 355.646 337.579 355.646 323.363C355.646 309.146 344.132 297.621 329.928 297.621C315.724 297.621 304.209 309.146 304.209 323.363C304.209 337.579 315.724 349.104 329.928 349.104Z" fill="#EE964B"/>
<path d="M361.512 349.104C375.716 349.104 387.231 337.579 387.231 323.363C387.231 309.146 375.716 297.621 361.512 297.621C347.308 297.621 335.794 309.146 335.794 323.363C335.794 337.579 347.308 349.104 361.512 349.104Z" fill="#F95738"/>
<path d="M349.575 159.041H271.344V170.963H349.575V159.041Z" fill="#D2DF5B"/>
<path d="M83.7062 296.826H41.619V308.748H83.7062V296.826Z" fill="#D2DF5B"/>
<path d="M193.983 326.234H41.619V338.157H193.983V326.234Z" fill="#D2DF5B"/>
<path d="M138.934 296.826H96.8472V308.748H138.934V296.826Z" fill="#D2DF5B"/>
<path d="M193.445 296.826H151.358V308.748H193.445V296.826Z" fill="#D2DF5B"/>
<path d="M247.7 296.826H205.613V308.748H247.7V296.826Z" fill="#D2DF5B"/>
<path d="M379.649 182.45H271.344V194.603H379.649V182.45Z" fill="#D2DF5B"/>
</g>
<g clip-path="url(#clip1_18_36)">
<path d="M471.976 0H136.277C120.8 0 108.253 12.5581 108.253 28.0493V236.368C108.253 251.859 120.8 264.417 136.277 264.417H471.976C487.453 264.417 500 251.859 500 236.368V28.0493C500 12.5581 487.453 0 471.976 0Z" fill="#77787B"/>
<path d="M500 63.8416H108.253V116.684H500V63.8416Z" fill="#4D4D4F"/>
<path d="M363.723 95.5829H28.024C12.5468 95.5829 0 108.141 0 123.632V331.951C0 347.442 12.5468 360 28.024 360H363.723C379.2 360 391.746 347.442 391.746 331.951V123.632C391.746 108.141 379.2 95.5829 363.723 95.5829Z" fill="white"/>
<path d="M121.343 145.836V182.833C121.382 183.448 121.382 184.064 121.343 184.679C120.876 187.683 119.357 190.423 117.058 192.409C114.758 194.396 111.829 195.5 108.791 195.525H40.5758C37.5273 195.497 34.5884 194.382 32.2877 192.38C29.9869 190.378 28.4751 187.62 28.024 184.602C27.9722 183.988 27.9722 183.37 28.024 182.756V145.836C27.9722 145.222 27.9722 144.604 28.024 143.99C28.4916 140.986 30.0106 138.246 32.3098 136.26C34.6089 134.273 37.5386 133.169 40.5758 133.144H108.663C111.701 133.169 114.63 134.273 116.929 136.26C119.229 138.246 120.748 140.986 121.215 143.99C121.297 144.602 121.34 145.218 121.343 145.836Z" fill="#F7E06D"/>
<path d="M89.6562 153.835C89.6626 151.265 89.043 148.731 87.8511 146.454C86.6592 144.177 84.9308 142.225 82.8156 140.767C80.7004 139.309 78.2621 138.389 75.7117 138.086C73.1612 137.784 70.5755 138.108 68.1784 139.031C65.7812 139.953 63.6448 141.447 61.9541 143.382C60.2633 145.317 59.0692 147.635 58.4749 150.136C57.8807 152.637 57.9043 155.245 58.5437 157.734C59.1831 160.224 60.4191 162.52 62.1446 164.424C60.0922 166.694 58.7421 169.512 58.258 172.535C57.7739 175.558 58.1766 178.656 59.4173 181.455C60.658 184.253 62.6834 186.631 65.2477 188.3C67.812 189.969 70.8051 190.858 73.8639 190.858C76.9228 190.858 79.9159 189.969 82.4802 188.3C85.0445 186.631 87.0699 184.253 88.3105 181.455C89.5512 178.656 89.954 175.558 89.4699 172.535C88.9858 169.512 87.6356 166.694 85.5833 164.424C88.1982 161.517 89.6487 157.747 89.6562 153.835Z" fill="#F2CB41"/>
<path d="M121.343 145.836V151.271H27.8959V145.836C27.8441 145.222 27.8441 144.604 27.8959 143.99H121.215C121.297 144.602 121.34 145.218 121.343 145.836Z" fill="#F2CB41"/>
<path d="M121.369 160.732H27.8959V167.937H121.369V160.732Z" fill="#F2CB41"/>
<path d="M121.343 177.475V182.833C121.382 183.448 121.382 184.064 121.343 184.679H28.024C27.9722 184.065 27.9722 183.447 28.024 182.833V177.475H121.343Z" fill="#F2CB41"/>
<path d="M310.928 333.104C325.132 333.104 336.646 321.579 336.646 307.363C336.646 293.146 325.132 281.621 310.928 281.621C296.724 281.621 285.209 293.146 285.209 307.363C285.209 321.579 296.724 333.104 310.928 333.104Z" fill="#EE964B"/>
<path d="M342.512 333.104C356.716 333.104 368.231 321.579 368.231 307.363C368.231 293.146 356.716 281.621 342.512 281.621C328.308 281.621 316.794 293.146 316.794 307.363C316.794 321.579 328.308 333.104 342.512 333.104Z" fill="#F95738"/>
<path d="M330.575 143.041H252.344V154.963H330.575V143.041Z" fill="#D2DF5B"/>
<path d="M64.7062 280.826H22.619V292.748H64.7062V280.826Z" fill="#D2DF5B"/>
<path d="M174.983 310.234H22.619V322.157H174.983V310.234Z" fill="#D2DF5B"/>
<path d="M119.934 280.826H77.8472V292.748H119.934V280.826Z" fill="#D2DF5B"/>
<path d="M174.445 280.826H132.358V292.748H174.445V280.826Z" fill="#D2DF5B"/>
<path d="M228.7 280.826H186.613V292.748H228.7V280.826Z" fill="#D2DF5B"/>
<path d="M360.649 166.45H252.344V178.603H360.649V166.45Z" fill="#D2DF5B"/>
</g>
<defs>
<clipPath id="clip0_18_36">
<rect width="500" height="360" fill="white" transform="translate(19 16)"/>
</clipPath>
<clipPath id="clip1_18_36">
<rect width="500" height="360" fill="white"/>
</clipPath>
</defs>
</svg>
