<svg width="180" height="149" viewBox="0 0 180 149" fill="none" xmlns="http://www.w3.org/2000/svg">
<path d="M90 59.6C106.569 59.6 120 46.2581 120 29.8C120 13.3419 106.569 0 90 0C73.4315 0 60 13.3419 60 29.8C60 46.2581 73.4315 59.6 90 59.6Z" fill="white"/>
<path d="M50 49.6667C50 60.6387 41.0457 69.5333 30 69.5333C18.9543 69.5333 10 60.6387 10 49.6667C10 38.6946 18.9543 29.8 30 29.8C41.0457 29.8 50 38.6946 50 49.6667Z" fill="white"/>
<path d="M4.90644 122.435C3.21065 121.456 1.90213 119.913 1.32468 118.051C0.463562 115.274 0 112.324 0 109.267C0 92.8086 13.4315 79.4667 30 79.4667C35.22 79.4667 40.1287 80.791 44.404 83.1199C33.9329 93.3619 26.9414 107.106 25.3478 122.445C25.118 124.657 25.2139 126.84 25.5996 128.944C18.1061 128.295 11.0861 126.004 4.90644 122.435Z" fill="white"/>
<path d="M154.405 128.943C161.897 128.294 168.915 126.003 175.094 122.435C176.789 121.456 178.098 119.913 178.675 118.051C179.536 115.274 180 112.324 180 109.267C180 92.8086 166.569 79.4667 150 79.4667C144.781 79.4667 139.873 80.7904 135.599 83.1183C146.071 93.3606 153.063 107.106 154.656 122.445C154.886 124.657 154.79 126.84 154.405 128.943Z" fill="white"/>
<path d="M170 49.6667C170 60.6387 161.046 69.5333 150 69.5333C138.954 69.5333 130 60.6387 130 49.6667C130 38.6946 138.954 29.8 150 29.8C161.046 29.8 170 38.6946 170 49.6667Z" fill="white"/>
<path d="M43.0383 131.03C41.0473 129.239 39.9922 126.628 40.2679 123.975C42.8657 98.9687 64.1408 79.4667 90.0015 79.4667C115.862 79.4667 137.137 98.9687 139.735 123.975C140.011 126.629 138.956 129.239 136.965 131.03C124.545 142.197 108.073 149 90.0015 149C71.9298 149 55.4576 142.197 43.0383 131.03Z" fill="white"/>
</svg>
