<svg width="8" height="30" viewBox="0 0 8 30" fill="none" xmlns="http://www.w3.org/2000/svg">
<path fill-rule="evenodd" clip-rule="evenodd" d="M0 3C1.19209e-07 1.34315 1.79086 0 4 0C6.20914 8.9407e-08 8 1.34315 8 3C8 4.65685 6.20914 6 4 6C1.79086 6 0 4.65685 0 3ZM0 15C1.19209e-07 13.3431 1.79086 12 4 12C6.20914 12 8 13.3431 8 15C8 16.6569 6.20914 18 4 18C1.79086 18 0 16.6569 0 15ZM0 27C1.19209e-07 25.3431 1.79086 24 4 24C6.20914 24 8 25.3431 8 27C8 28.6569 6.20914 30 4 30C1.79086 30 0 28.6569 0 27Z" fill="white"/>
</svg>
