<svg width="188" height="134" viewBox="0 0 188 134" fill="none" xmlns="http://www.w3.org/2000/svg">
<path d="M106.923 53.4614C106.923 68.2243 94.9552 80.1921 80.1922 80.1921C65.4292 80.1921 53.4615 68.2243 53.4615 53.4614C53.4615 38.6984 65.4292 26.7306 80.1922 26.7306C94.9552 26.7306 106.923 38.6984 106.923 53.4614ZM93.5576 53.4614C93.5576 46.0799 87.5737 40.096 80.1922 40.096C72.8108 40.096 66.8269 46.0799 66.8269 53.4614C66.8269 60.8428 72.8108 66.8267 80.1922 66.8267C87.5737 66.8267 93.5576 60.8428 93.5576 53.4614Z" fill="white"/>
<path d="M0 16.7067C0 7.4798 7.4798 0 16.7067 0H143.678C152.905 0 160.385 7.4798 160.385 16.7067V90.2163C160.385 99.4438 152.905 106.923 143.678 106.923H16.7067C7.4798 106.923 0 99.4438 0 90.2163V16.7067ZM16.7067 13.3654C14.8614 13.3654 13.3654 14.8614 13.3654 16.7067V26.7308H20.0481C23.7388 26.7308 26.7308 23.7388 26.7308 20.0481V13.3654H16.7067ZM13.3654 90.2163C13.3654 92.0617 14.8614 93.5577 16.7067 93.5577H26.7308V86.875C26.7308 83.1843 23.7388 80.1923 20.0481 80.1923H13.3654V90.2163ZM40.0961 86.875V93.5577H120.288V86.875C120.288 75.8027 129.265 66.8269 140.336 66.8269H147.019V40.0961H140.336C129.265 40.0961 120.288 31.1204 120.288 20.0481V13.3654H40.0961V20.0481C40.0961 31.1204 31.1204 40.0961 20.0481 40.0961H13.3654V66.8269H20.0481C31.1204 66.8269 40.0961 75.8027 40.0961 86.875ZM133.654 93.5577H143.678C145.524 93.5577 147.019 92.0617 147.019 90.2163V80.1923H140.336C136.646 80.1923 133.654 83.1843 133.654 86.875V93.5577ZM147.019 26.7308V16.7067C147.019 14.8614 145.524 13.3654 143.678 13.3654H133.654V20.0481C133.654 23.7388 136.646 26.7308 140.336 26.7308H147.019Z" fill="white"/>
<path d="M46.7788 133.654C37.8694 133.654 30.3175 127.842 27.7069 119.803C29.5614 120.122 31.468 120.288 33.4134 120.288H143.678C160.286 120.288 173.75 106.824 173.75 90.216V27.8712C181.537 30.6234 187.115 38.0495 187.115 46.7786V90.216C187.115 114.206 167.667 133.654 143.678 133.654H46.7788Z" fill="white"/>
</svg>
